<svg xmlns="http://www.w3.org/2000/svg" width="44" height="44" fill="none"><path fill="#fff" fill-opacity="0.1" d="M10.9123 33.3044C11.9175 34.3097 11.9175 35.9599 10.9123 36.9652 10.9123 36.9652 10.9123 36.9652 10.9123 37.0371 9.90771 38.0417 8.25672 38.0417 7.25146 37.0371 6.24691 36.0326 6.24691 34.3808 7.25146 33.3763 8.25672 32.2991 9.8358 32.2991 10.9123 33.3044ZM37.0398 33.0886C38.0443 34.0932 38.0443 35.7442 37.0398 36.7487 36.0345 37.754 34.3835 37.754 33.3783 36.7487 33.3071 36.6775 33.3071 36.6775 33.2352 36.6056 32.3737 35.6004 32.3737 34.0213 33.3783 33.0886 34.3116 32.1553 35.8195 32.0834 36.896 32.9448 36.896 33.016 36.9679 33.0886 37.0398 33.0886ZM36.8232 6.96206C37.8277 7.96661 37.8277 9.61762 36.8232 10.6222 36.7513 10.6941 36.6793 10.766 36.6082 10.8379 35.6029 11.6274 34.0957 11.5555 33.1623 10.6222 32.229 9.68952 32.1578 8.25353 32.9473 7.17707 33.0192 7.10517 33.0904 6.96206 33.1623 6.89016 34.1669 5.9568 35.8186 5.9568 36.8232 6.96206ZM10.7699 7.2483C11.7025 8.25285 11.6313 9.83195 10.698 10.8372 9.6927 11.8418 8.11361 11.8417 7.10906 10.9091 7.03715 10.9091 7.03715 10.8372 7.03715 10.8372 6.03189 9.83195 6.03189 8.18095 7.03715 7.1764 8.0417 6.17113 9.6927 6.17113 10.698 7.1764L10.7699 7.2483Z"/><path fill="#fff" d="M6.17433 22.1063C6.17433 23.5416 5.02597 24.6899 3.66189 24.6899H3.58999C2.15471 24.6899 1.00635 23.5416 1.00635 22.1063 1.00635 20.6703 2.15471 19.522 3.58999 19.522 3.58999 19.522 3.58999 19.522 3.66189 19.522 5.02597 19.522 6.17433 20.6703 6.17433 22.1063ZM24.7652 40.3395C24.7652 40.4114 24.7652 40.4114 24.7652 40.484 24.7652 41.9186 23.6168 43.0676 22.1808 43.0676 20.7455 43.0676 19.5972 41.9186 19.5972 40.484V40.4114C19.5972 38.9754 20.7455 37.8996 22.1808 37.8996 23.5449 37.8996 24.6933 38.9754 24.7652 40.3395ZM40.1959 24.4046C38.9037 24.2608 37.8984 23.1843 37.8984 21.8209 37.8984 20.5288 38.9037 19.3804 40.124 19.2366 40.2671 19.2366 40.339 19.2366 40.4828 19.2366 41.9181 19.2366 43.0664 20.3849 43.0664 21.8209 43.0664 23.2562 41.9181 24.4046 40.4828 24.4046 40.4109 24.4765 40.339 24.4765 40.1959 24.4046ZM24.4797 3.51746C24.4797 3.58936 24.4797 3.73318 24.4797 3.80437 24.3359 5.09654 23.2594 6.10181 21.8954 6.10181 20.532 6.10181 19.4548 5.09654 19.311 3.80437 19.311 3.73318 19.311 3.58936 19.311 3.51746 19.311 2.08218 20.4601.933104 21.8954.933104 23.3306.933104 24.4797 2.08218 24.4797 3.51746Z"/><path fill="#fff" fill-opacity="0.1" d="M13.7829 20.0982C13.7829 18.0165 15.4339 16.3655 17.5156 16.3655C17.9464 16.3655 18.3771 16.4374 18.8078 16.5805C19.3816 14.5714 21.2476 13.1354 23.4013 13.1354C26.0575 13.1354 28.2104 15.1452 28.2104 17.8727C30.8667 17.8727 33.0203 20.1694 33.0203 22.8257C33.0203 25.4812 30.8667 27.8499 28.2104 27.8499C27.9954 27.8499 26.7751 27.8499 26.7751 27.8499H25.9856H21.5353H15.9365C15.4339 27.8499 14.5006 27.8499 14.5006 27.8499C12.4196 27.8499 10.7686 25.9839 10.7686 23.974C10.7686 22.18 12.06 20.6721 13.711 20.3132C13.7829 20.1694 13.7829 20.1694 13.7829 20.0982Z"/><path fill="#fff" d="M32.947 8.11011C32.7313 8.11011 32.5882 8.03891 32.4444 7.96701 30.0758 6.24411 27.2764 5.09574 24.4052 4.66501 23.9025 4.59311 23.5437 4.16239 23.6156 3.65976 23.6875 3.15784 24.1182 2.79902 24.6202 2.87092 27.8502 3.30165 30.8653 4.5931 33.4489 6.53172 33.8797 6.81863 33.9516 7.39247 33.6647 7.752 33.449 8.03891 33.162 8.11011 32.947 8.11011ZM40.1267 20.168C39.6959 20.168 39.3371 19.8811 39.2652 19.3791 38.8345 16.5079 37.6861 13.7085 35.8913 11.4111 35.6044 11.0523 35.6763 10.4785 36.0351 10.1196 36.3939 9.83201 36.9685 9.90391 37.3273 10.2627 39.2652 12.8471 40.5574 15.8614 41.06 19.0915 41.1312 19.5942 40.7724 20.0249 40.3417 20.0968 40.2698 20.168 40.1986 20.168 40.1267 20.168ZM36.8226 33.8069C36.6076 33.8069 36.4637 33.735 36.3199 33.6631 35.8892 33.3762 35.818 32.8023 36.1049 32.4435 37.8271 30.0742 38.9762 27.2748 39.335 24.3316 39.4062 23.829 39.8376 23.4709 40.3396 23.5421 40.8422 23.614 41.201 24.0447 41.1291 24.5474 40.6984 27.7774 39.4781 30.8637 37.6121 33.4481 37.3964 33.735 37.1095 33.8069 36.8226 33.8069ZM24.7647 41.2007C24.334 41.2007 23.9752 40.9138 23.9033 40.4111 23.8314 39.9092 24.1902 39.4785 24.6209 39.4066 27.5641 38.9751 30.3634 37.7556 32.6601 35.8889 33.0197 35.602 33.5935 35.6739 33.9523 36.0334 34.2392 36.3922 34.1673 36.966 33.8085 37.3249 31.2249 39.3347 28.1386 40.6981 24.9085 41.2007 24.8359 41.2007 24.7647 41.2007 24.7647 41.2007ZM19.5251 41.2717C19.4532 41.2717 19.4532 41.2717 19.3813 41.2717 16.0793 40.8417 12.993 39.6214 10.3375 37.6109 9.90676 37.324 9.83486 36.7495 10.1218 36.3914 10.4087 35.9599 10.9832 35.888 11.342 36.1756 13.8545 38.0416 16.7257 39.1188 19.6689 39.5488 20.1708 39.6214 20.5303 40.0515 20.4584 40.5541 20.3858 40.9848 20.0277 41.2717 19.5251 41.2717ZM7.18133 34.2385C6.89371 34.2385 6.6787 34.0947 6.46298 33.879 4.45317 31.2234 3.16171 28.1372 2.65908 24.9071 2.58717 24.4045 2.946 23.9738 3.44863 23.9018 3.95126 23.8299 4.38198 24.1888 4.45318 24.6914 4.8839 27.6345 6.03226 30.5058 7.89826 32.8744 8.18589 33.2333 8.11398 33.8078 7.75516 34.1666 7.61135 34.1666 7.39634 34.2385 7.18133 34.2385ZM3.59173 20.385C3.52054 20.385 3.52054 20.385 3.44863 20.385 2.946 20.3131 2.58717 19.8824 2.65908 19.3805 3.0898 16.1497 4.38199 12.9915 6.39109 10.4079 6.67871 9.97714 7.25253 9.90524 7.68326 10.2641 8.11398 10.5517 8.18589 11.1255 7.82707 11.5562 6.03226 13.9249 4.8839 16.7242 4.45318 19.7393 4.38198 20.0981 4.02245 20.385 3.59173 20.385ZM10.7683 8.18115C10.4807 8.18115 10.1938 8.03805 10.05 7.82233 9.76309 7.39161 9.835 6.88968 10.1938 6.53086 12.7775 4.59224 15.8644 3.30079 19.0945 2.87006 19.5971 2.79816 20.0279 3.15698 20.0998 3.6589 20.171 4.16153 19.8122 4.59224 19.3095 4.66415 16.3664 5.09488 13.5677 6.24325 11.1991 8.03805 11.1991 8.10925 10.9833 8.18115 10.7683 8.18115Z"/><path fill="#fff" d="M21.8935 1.79406C20.9602 1.79406 20.1706 2.5836 20.1706 3.51695 20.1706 3.58886 20.1706 3.66005 20.1706 3.66005 20.2426 4.5215 20.9602 5.16794 21.8935 5.16794 22.8269 5.16794 23.4726 4.5215 23.6165 3.66005 23.6165 3.58886 23.6165 3.51695 23.6165 3.51695 23.6165 2.5836 22.8269 1.79406 21.8935 1.79406ZM21.8935 7.03394C20.0995 7.03394 18.5916 5.67058 18.4478 3.87577 18.4478 3.73267 18.4478 3.66005 18.4478 3.51695 18.4478 1.57905 20.0275-.0000513776 21.9655-.0000513776 23.9034-.0000513776 25.4825 1.57905 25.4825 3.51695 25.4825 3.66005 25.4825 3.80387 25.4825 3.87577 25.1955 5.67058 23.6883 7.03394 21.8935 7.03394ZM22.1796 38.7608C21.2462 38.7608 20.5293 39.4785 20.4574 40.4111 20.4574 41.3452 21.2462 42.134 22.1796 42.134 23.1129 42.134 23.9025 41.3452 23.9025 40.4111V40.3392C23.8306 39.4785 23.041 38.7608 22.1796 38.7608ZM22.1796 44C20.2417 44 18.6626 42.4209 18.6626 40.4837V40.4111C18.7345 38.5451 20.2417 36.966 22.1796 36.966 24.0463 36.966 25.5535 38.402 25.6966 40.268 25.6966 40.3392 25.6966 40.4111 25.6966 40.4837 25.6254 42.4209 24.1182 44 22.1796 44ZM35.0302 7.10434C34.5995 7.10434 34.1688 7.24816 33.81 7.60698 33.7381 7.67817 33.7381 7.75079 33.6669 7.75079 33.1643 8.39652 33.2362 9.40107 33.81 9.97561 34.0976 10.2625 34.5283 10.4782 35.0302 10.4782 35.3898 10.4782 35.7486 10.3344 36.1074 10.1194 36.1793 10.0475 36.2505 10.0475 36.2505 9.97561 36.897 9.32916 36.897 8.25271 36.2505 7.53507 35.8917 7.32006 35.461 7.10434 35.0302 7.10434ZM34.959 12.3442C34.0257 12.3442 33.1643 11.9854 32.5185 11.3397 31.2983 10.1194 31.1544 8.10889 32.2309 6.74552 32.3028 6.60171 32.4466 6.53053 32.5185 6.38672 33.1643 5.74027 34.0257 5.38145 34.959 5.38145 35.8917 5.38145 36.7531 5.74027 37.3989 6.38672 38.763 7.7508 38.763 9.9756 37.3989 11.3397 37.3277 11.4109 37.1839 11.5547 37.0408 11.6266 36.5381 12.0573 35.7486 12.3442 34.959 12.3442ZM7.82563 33.9511C7.53872 34.238 7.32299 34.6687 7.32299 35.1714 7.32299 35.6014 7.46681 36.0328 7.82563 36.3916 8.11254 36.6786 8.54326 36.8943 9.04589 36.8943 9.47661 36.8943 9.90735 36.7497 10.2662 36.3916 10.9119 35.7452 10.9119 34.6687 10.2662 34.0223 9.97925 33.7354 9.54852 33.5197 9.04589 33.5197 8.61516 33.4485 8.18445 33.5916 7.82563 33.9511ZM9.04589 38.6165C8.11253 38.6165 7.25108 38.2576 6.60535 37.6112 5.95891 36.9655 5.6001 36.104 5.6001 35.1714 5.6001 34.238 5.95891 33.3766 6.60535 32.7301 7.25108 32.0844 8.11253 31.7256 9.04589 31.7256 9.97924 31.7256 10.84 32.0844 11.4864 32.7301 12.8505 34.0942 12.8505 36.2471 11.5583 37.6112L11.4864 37.6831C10.84 38.2576 9.97924 38.6165 9.04589 38.6165ZM40.4832 20.1677C40.4113 20.1677 40.3394 20.1677 40.2675 20.1677 39.406 20.3115 38.7603 21.0292 38.7603 21.8906 38.7603 22.7521 39.406 23.4704 40.2675 23.6135 40.3394 23.6135 40.4113 23.6135 40.4832 23.6135 41.4158 23.6135 42.2054 22.824 42.2054 21.8906 42.2054 20.958 41.4158 20.1677 40.4832 20.1677ZM40.4832 25.3364C40.3394 25.3364 40.1963 25.3364 40.1244 25.3364 38.3296 25.1207 37.0381 23.6854 37.0381 21.8906 37.0381 20.1677 38.3296 18.6605 40.0525 18.4455 40.1963 18.4455 40.3394 18.4455 40.4832 18.4455 42.4211 18.4455 44.0002 20.0246 44.0002 21.9625 44.0002 23.9004 42.4211 25.3364 40.4832 25.3364ZM3.51771 20.3844C2.58435 20.3844 1.7948 21.1739 1.7948 22.1073 1.7948 23.0406 2.58435 23.8295 3.51771 23.8295 4.45035 23.8295 5.16798 23.0406 5.16798 22.1073 5.2406 21.1739 4.52225 20.4563 3.51771 20.3844ZM3.51771 25.6243C1.57909 25.6243 0 24.0452 0 22.1073 0 20.1686 1.57909 18.5903 3.51771 18.5903 3.51771 18.5903 3.51771 18.5903 3.5889 18.5903 5.45561 18.5903 7.03469 20.1686 7.03469 22.1073 7.03469 23.9733 5.5268 25.5524 3.5889 25.6243 3.5889 25.6243 3.5889 25.6243 3.51771 25.6243ZM8.83104 7.32029C8.40032 7.32029 7.9696 7.4634 7.61007 7.82221 7.32316 8.10913 7.10815 8.53984 7.10815 9.04247 7.10815 9.4732 7.25125 9.90393 7.61007 10.2628L7.68198 10.3347C7.9696 10.6216 8.40032 10.7654 8.83104 10.7654 9.26177 10.7654 9.69179 10.6216 10.0506 10.2628 10.6971 9.61702 10.6971 8.61176 10.1225 7.89412L10.0506 7.82221C9.7637 7.4634 9.33296 7.32029 8.83104 7.32029ZM8.83104 12.4883C7.96959 12.4883 7.10814 12.2006 6.53361 11.6268 6.4617 11.5549 6.46172 11.5549 6.38981 11.483 5.74408 10.8373 5.38525 9.97583 5.38525 9.04247 5.38525 8.10912 5.74408 7.24838 6.38981 6.60194 7.03625 5.95621 7.89698 5.5974 8.83104 5.5974 9.76369 5.5974 10.6251 5.95621 11.2709 6.60194 11.3428 6.67384 11.3428 6.67384 11.4147 6.74575 12.635 8.10912 12.563 10.2627 11.2709 11.5549 10.697 12.1287 9.76369 12.4883 8.83104 12.4883ZM35.173 33.2328C34.7423 33.2328 34.3116 33.3766 33.9528 33.7354 33.3071 34.3811 33.307 35.3857 33.8809 36.0328L33.9528 36.104C34.2397 36.3916 34.6704 36.6067 35.173 36.6067 35.6038 36.6067 36.0345 36.4628 36.3933 36.104 36.6802 35.8171 36.896 35.3857 36.896 34.8838 36.896 34.3811 36.7521 34.0223 36.3933 33.6635 36.3214 33.5916 36.3214 33.5916 36.2495 33.5197 35.9626 33.3766 35.6038 33.2328 35.173 33.2328ZM35.173 38.4727C34.2397 38.4727 33.3782 38.1138 32.7325 37.4681 32.6606 37.3962 32.5894 37.3243 32.5894 37.3243 31.3684 35.9602 31.4403 33.8785 32.7325 32.587 33.3782 31.9413 34.2397 31.5825 35.173 31.5825 35.9626 31.5825 36.7521 31.8694 37.3979 32.3713 37.4705 32.4432 37.5417 32.5151 37.6855 32.587 38.3312 33.2328 38.69 34.0942 38.69 35.0276 38.69 35.9602 38.3312 36.8217 37.6855 37.4681 36.9678 38.1138 36.1064 38.4727 35.173 38.4727ZM24.4803 20.4558C24.2645 20.4558 24.0495 20.3839 23.9057 20.2401 23.5469 19.9532 23.475 19.3794 23.7619 18.9486 24.8384 17.6565 26.4182 16.9388 28.0692 16.9388 28.5718 16.9388 29.0025 17.3688 29.0025 17.8715 29.0025 18.3741 28.5718 18.8048 28.0692 18.8048 26.9201 18.8048 25.8436 19.3074 25.126 20.1682 25.0541 20.3839 24.7672 20.4558 24.4803 20.4558ZM16.6538 21.9639C16.4388 21.9639 16.2231 21.892 16.0793 21.7489 15.5055 21.2462 14.7159 21.0305 13.9264 21.1024 13.4238 21.1743 12.993 20.8155 12.9211 20.3129 12.8499 19.811 13.208 19.3802 13.7107 19.3083 15.0028 19.1645 16.295 19.5233 17.2277 20.3848 17.5872 20.6717 17.6584 21.2462 17.3003 21.677 17.1565 21.8208 16.8696 21.9639 16.6538 21.9639ZM25.9838 28.7112C25.625 28.7112 25.3374 28.4962 25.1943 28.2086 24.9785 27.7786 25.1224 27.204 25.625 26.989H25.6962C27.2041 26.3426 28.1374 25.4811 28.4243 24.3327 28.6393 23.5432 28.4962 22.8975 28.4962 22.8256 28.3524 22.3229 28.6393 21.821 29.142 21.7491 29.6446 21.6053 30.1465 21.8922 30.2184 22.3948 30.2184 22.5387 30.5061 23.5432 30.1465 24.8354 29.8596 25.9837 28.927 27.6347 26.3426 28.7112 26.1988 28.7112 26.1269 28.7112 25.9838 28.7112Z"/><path fill="#fff" d="M25.9862 26.9173H26.7757C26.7757 26.9173 27.996 26.9173 28.211 26.9173 30.3647 26.9173 32.1595 25.0506 32.1595 22.8258 32.1595 20.6722 30.3647 18.8062 28.211 18.8062 27.7091 18.8062 27.2784 18.3755 27.2784 17.8728 27.2784 15.7192 25.5555 14.0689 23.33 14.0689 21.6078 14.0689 20.0287 15.2173 19.5979 16.8683 19.526 17.0833 19.3822 17.299 19.1672 17.4421 18.9515 17.5859 18.6646 17.5859 18.4489 17.514 18.162 17.3702 17.8031 17.3702 17.4443 17.3702 15.8652 17.3702 14.5731 18.6624 14.5731 20.2415V20.3134C14.5731 20.7441 14.2862 21.1029 13.8554 21.1748 12.5633 21.4617 11.6306 22.6108 11.6306 23.9742 11.6306 25.6252 12.9221 26.9892 14.5012 26.9892 14.5731 26.9892 15.7933 26.9892 15.9371 26.9892L25.9862 26.9173ZM28.211 28.7114C27.996 28.7114 26.7757 28.7114 26.7757 28.7114H16.0091C15.5064 28.7114 14.645 28.7114 14.5731 28.7114 12.0606 28.7114 9.90771 26.4859 9.90771 23.9023 9.90771 21.9644 11.128 20.2415 12.9221 19.5957 13.209 17.299 15.1476 15.5042 17.5162 15.5042 17.7312 15.5042 18.0189 15.5042 18.2339 15.5761 19.1672 13.6382 21.177 12.2741 23.4019 12.2741 26.345 12.2741 28.6417 14.2839 29.0725 17.0114 30.2927 17.2271 31.3692 17.8016 32.3026 18.6624 33.379 19.7395 33.9535 21.2467 33.9535 22.7539 33.9535 25.984 31.298 28.7114 28.211 28.7114ZM26.0588 33.2334H17.0862C16.5836 33.2334 16.1528 32.8034 16.1528 32.3001 16.1528 31.7974 16.5836 31.3674 17.0862 31.3674H26.0588C26.5607 31.3674 26.9914 31.7974 26.9914 32.3001 26.9914 32.8034 26.5607 33.2334 26.0588 33.2334Z"/><path fill="#fff" d="M21.6062 33.2332C21.1036 33.2332 20.6729 32.8032 20.6729 32.2998V23.3279C20.6729 22.8253 21.1036 22.3946 21.6062 22.3946C22.1081 22.3946 22.5388 22.8253 22.5388 23.3279V32.2998C22.4677 32.8032 22.0369 33.2332 21.6062 33.2332Z"/></svg>