<svg xmlns="http://www.w3.org/2000/svg" width="24" height="25" fill="none"><path fill="#0B0103" d="M2.8311 22.9326C2.52625 22.9326 2.26489 22.6708 2.26489 22.3653 2.26489 22.0599 2.52625 21.798 2.8311 21.798 3.44081 21.798 20.2108 21.798 21.1254 21.798 21.4303 21.798 21.6916 22.0599 21.6916 22.3653 21.6916 22.6708 21.4303 22.9326 21.1254 22.9326H2.8311ZM4.70415 20.2271C4.70415 19.9217 4.96552 19.6599 5.27038 19.6599 5.53174 19.6599 18.5992 19.6599 18.7296 19.6599 19.0349 19.6599 19.2958 19.9217 19.2958 20.2271 19.2958 20.5326 19.0349 20.7944 18.7296 20.7944H5.22689C4.96552 20.7508 4.70415 20.4889 4.70415 20.2271ZM6.53371 13.6816C6.53371 10.6707 8.97298 8.22708 11.9785 8.22708 12.5882 8.22708 13.1979 8.31435 13.7206 8.53254 11.2379 10.6271 10.7591 13.7253 12.3268 16.1689 12.4138 16.3435 12.5882 16.4307 12.8061 16.4307 13.2414 16.4307 13.5027 15.9507 13.2853 15.6017 11.9785 13.5071 12.4138 10.8016 14.8965 9.05618 16.4647 10.0162 17.4667 11.718 17.4667 13.6816V18.5689H10.933V17.478C10.933 17.1726 10.6716 16.9107 10.3668 16.9107 10.0619 16.9107 9.80057 17.1726 9.80057 17.478V18.5689H8.71162V15.2962C8.71162 14.9907 8.45024 14.7289 8.14539 14.7289 7.84053 14.7289 7.62266 14.9907 7.62266 15.2962V18.5689H6.53371V13.6816ZM23.4342 22.9326H22.6936C23.0854 21.8853 22.2578 20.7508 21.1689 20.7508H20.2978C20.6897 19.7035 19.8625 18.5689 18.7731 18.5689H18.5117V13.6816C18.5117 10.0598 15.5937 7.13617 11.9785 7.13617 8.36327 7.13617 5.44476 10.0598 5.44476 13.6816V18.5689H5.22689C4.09445 18.5689 3.31034 19.7035 3.70218 20.7508H2.8311C1.69866 20.7508.914569 21.8853 1.30683 22.9326H.566221C.261367 22.9326 0 23.1944 0 23.4999 0 23.8053.261367 24.0671.566221 24.0671 3.04898 24.0671 20.5157 24.0671 23.4342 24.0671 23.7391 24.0671 24 23.8053 24 23.4999 23.9565 23.1944 23.6951 22.9326 23.4342 22.9326ZM16.9004 6.56888C17.213 6.56888 17.4667 6.82285 17.4667 7.13616 17.4667 7.44947 17.213 7.70343 16.9004 7.70343 16.5874 7.70343 16.3342 7.44947 16.3342 7.13616 16.3342 6.82285 16.5874 6.56888 16.9004 6.56888ZM22.3452 12.5471C22.6578 12.5471 22.9114 12.8011 22.9114 13.1144 22.9114 13.4277 22.6578 13.6816 22.3452 13.6816 22.0322 13.6816 21.7786 13.4277 21.7786 13.1144 21.7786 12.8011 22.0322 12.5471 22.3452 12.5471ZM13.0674.54703C13.38.54703 13.6336.800995 13.6336 1.1143 13.6336 1.42762 13.38 1.68158 13.0674 1.68158 12.7543 1.68158 12.5007 1.42762 12.5007 1.1143 12.5007.800995 12.7543.54703 13.0674.54703ZM2.17804 1.63797C2.49064 1.63797 2.74425 1.89194 2.74425 2.20525 2.74425 2.51856 2.49064 2.77252 2.17804 2.77252 1.86543 2.77252 1.61182 2.51856 1.61182 2.20525 1.61182 1.89194 1.86543 1.63797 2.17804 1.63797ZM6.53375 6.00162C6.84635 6.00162 7.09997 6.25558 7.09997 6.56889 7.09997 6.8822 6.84635 7.13617 6.53375 7.13617 6.22071 7.13617 5.96753 6.8822 5.96753 6.56889 5.96753 6.25558 6.22071 6.00162 6.53375 6.00162ZM.566221 15.2962C.878827 15.2962 1.13244 15.5501 1.13244 15.8635 1.13244 16.1768.878827 16.4307.566221 16.4307.253616 16.4307 0 16.1768 0 15.8635 0 15.5501.253616 15.2962.566221 15.2962ZM17.5102 5.95755C17.815 5.95755 18.0764 6.21937 18.0764 6.52483 18.0764 6.83028 18.3377 7.0921 18.6426 7.0921 18.9474 7.0921 19.2088 6.83028 19.2088 6.52483 19.2088 5.60846 18.4682 4.86664 17.5536 4.86664 17.2488 4.86664 16.9874 5.12846 16.9874 5.43391 16.9439 5.69573 17.2053 5.95755 17.5102 5.95755Z"/><path fill="#0B0103" d="M17.5102 4.29997C18.7296 4.29997 19.6881 5.25997 19.6881 6.4818C19.6881 6.78725 19.9494 7.04907 20.2543 7.04907C20.5591 7.04907 20.8205 6.78725 20.8205 6.4818C20.8205 4.6927 19.3397 3.20906 17.5536 3.20906C17.2488 3.20906 16.9874 3.47088 16.9874 3.77633C16.9439 4.08179 17.2053 4.29997 17.5102 4.29997Z"/><path fill="#0B0103" d="M17.5102 2.68481C19.6011 2.68481 21.3432 4.38664 21.3432 6.52483 21.3432 6.83028 21.6046 7.0921 21.9094 7.0921 22.2143 7.0921 22.4757 6.83028 22.4757 6.52483 22.4757 3.81936 20.2978 1.5939 17.5536 1.5939 17.2488 1.5939 16.9874 1.85572 16.9874 2.16118 16.9439 2.42299 17.2053 2.68481 17.5102 2.68481ZM2.17788 7.13617C2.48273 7.13617 2.7441 7.39799 2.7441 7.70344 2.7441 8.0089 2.48273 8.27072 2.17788 8.27072 1.87303 8.27072 1.61166 8.0089 1.61166 7.70344 1.61166 7.39799 1.87303 7.13617 2.17788 7.13617ZM2.17788 9.31799C3.09244 9.31799 3.83305 8.57617 3.83305 7.65981 3.83305 6.74344 3.09244 6.00162 2.17788 6.00162 1.26332 6.00162.522705 6.74344.522705 7.65981.522705 8.57617 1.26332 9.31799 2.17788 9.31799ZM8.45016 1.11433C8.58063 1.11433 8.71153 1.24524 8.71153 1.37615 8.71153 1.50706 8.58063 1.63797 8.45016 1.63797 8.31927 1.63797 8.1888 1.50706 8.1888 1.37615 8.1888 1.24524 8.27578 1.11433 8.45016 1.11433ZM8.45016 2.77252C9.19034 2.77252 9.80049 2.16161 9.80049 1.41979 9.80049.677969 9.19034.0670578 8.45016.0670578 7.70956.0670578 7.09985.677969 7.09985 1.41979 7.09985 2.16161 7.70956 2.77252 8.45016 2.77252ZM21.5174 17.4781C21.3869 17.4781 21.256 17.3471 21.256 17.2162 21.256 17.0853 21.3869 16.9544 21.5174 16.9544 21.6483 16.9544 21.7787 17.0853 21.7787 17.2162 21.7787 17.3471 21.6483 17.4781 21.5174 17.4781ZM21.5174 15.8635C20.7772 15.8635 20.1675 16.4744 20.1675 17.2162 20.1675 17.9581 20.7772 18.569 21.5174 18.569 22.258 18.569 22.8681 17.9581 22.8681 17.2162 22.8681 16.4744 22.258 15.8635 21.5174 15.8635ZM8.18877 13.1144C8.50138 13.1144 8.755 13.3683 8.755 13.6816 8.755 13.9949 8.50138 14.2489 8.18877 14.2489 7.87617 14.2489 7.62256 13.9949 7.62256 13.6816 7.62256 13.3683 7.87617 13.1144 8.18877 13.1144Z"/></svg>