<svg xmlns="http://www.w3.org/2000/svg" width="92" height="92" fill="none"><circle cx="30" cy="30" r="30" fill="#fff" opacity="0.15"/><path fill="#fff" d="M90.1526 49.9062C91.1724 49.9062 91.9997 50.7228 91.9997 51.7302 91.9997 52.7377 91.1724 53.5543 90.1526 53.5543 89.1328 53.5543 88.3054 52.7377 88.3054 51.7302 88.3054 50.7228 89.1328 49.9062 90.1526 49.9062ZM77.7917 37.5585C78.8101 37.5585 79.6375 38.3751 79.6375 39.3826 79.6375 40.39 78.8101 41.2067 77.7917 41.2067 76.7705 41.2067 75.9431 40.39 75.9431 39.3826 75.9431 38.3751 76.7705 37.5585 77.7917 37.5585ZM28.0557 20.0192C29.077 20.0192 29.9043 20.8358 29.9043 21.8433 29.9043 22.8507 29.077 23.6674 28.0557 23.6674 27.0359 23.6674 26.21 22.8507 26.21 21.8433 26.21 20.8358 27.0359 20.0192 28.0557 20.0192ZM13.8472 49.9062C14.867 49.9062 15.6929 50.7228 15.6929 51.7302 15.6929 52.7377 14.867 53.5543 13.8472 53.5543 12.8259 53.5543 12 52.7377 12 51.7302 12 50.7228 12.8259 49.9062 13.8472 49.9062ZM13.8472 74.4607C14.867 74.4607 15.6929 75.2774 15.6929 76.2848 15.6929 77.2923 14.867 78.1089 13.8472 78.1089 12.8259 78.1089 12 77.2923 12 76.2848 12 75.2774 12.8259 74.4607 13.8472 74.4607ZM83.0478 65.621C84.0676 65.621 84.895 66.4376 84.895 67.4451 84.895 68.4525 84.0676 69.2692 83.0478 69.2692 82.028 69.2692 81.2007 68.4525 81.2007 67.4451 81.2007 66.4376 82.028 65.621 83.0478 65.621ZM69.6906 25.7722C70.6851 25.9125 71.2541 26.8947 71.1122 27.8769 70.9689 28.8591 71.5378 29.701 72.5323 29.9816 73.5268 30.1219 74.3808 29.5607 74.6646 28.5785 75.2321 25.7722 73.385 22.9659 70.4014 22.4047 69.4069 22.2644 68.5528 22.8256 68.2691 23.8078 68.1286 24.6497 68.838 25.4916 69.6906 25.7722Z"/><path fill="#fff" d="M70.6855 20.5804C74.5217 21.282 77.081 24.9301 76.3702 28.7186C76.227 29.7008 76.7959 30.5426 77.7918 30.8233C78.7863 30.9636 79.6376 30.4023 79.9213 29.4201C81.0591 23.6673 77.2215 18.1951 71.3962 17.0726C70.4017 16.9323 69.5491 17.4935 69.2639 18.4757C69.1235 19.4579 69.8328 20.2998 70.6855 20.5804Z"/><path fill="#fff" d="M71.6798 15.3888C78.501 16.6516 82.9061 23.106 81.6264 29.7007 81.4846 30.6829 82.0535 31.5248 83.048 31.8054 84.0425 31.9458 84.8952 31.3845 85.1789 30.4023 86.8842 21.8432 81.2008 13.5647 72.3906 12.0213 71.3961 11.881 70.5435 12.4422 70.2583 13.4244 70.1178 14.2663 70.8272 15.2485 71.6798 15.3888ZM75.0903 67.4451H69.6907C69.2637 67.4451 68.838 67.0241 68.838 66.6032 68.838 66.1823 69.2637 65.7613 69.6907 65.7613H75.0903C75.5159 65.7613 75.9429 66.1823 75.9429 66.6032 75.9429 67.0241 75.5159 67.4451 75.0903 67.4451ZM54.6282 84.9842H43.9708C35.7294 84.9842 28.9097 78.8104 28.0556 70.9529H28.9096C31.3243 70.9529 33.3133 68.9885 33.3133 66.6032 33.3133 64.2179 31.3243 62.2535 28.9096 62.2535H28.0556V60.4294H28.9096C31.3243 60.4294 33.3133 58.465 33.3133 56.0797 33.3133 53.6944 31.3243 51.73 28.9096 51.73H28.0556V48.2221C30.615 48.2221 68.6962 48.2221 70.6852 48.2221V51.73H69.8325C67.4179 51.73 65.4288 53.6944 65.4288 56.0797 65.4288 58.465 67.4179 60.4294 69.8325 60.4294H70.6852V62.2535H69.8325C67.4179 62.2535 65.4288 64.2179 65.4288 66.6032 65.4288 68.9885 67.4179 70.9529 69.8325 70.9529H70.6852C69.6907 78.8104 62.8695 84.9842 54.6282 84.9842ZM22.6574 66.6032C22.6574 66.1823 23.083 65.7613 23.5086 65.7613H28.9096C29.3338 65.7613 29.7609 66.1823 29.7609 66.6032 29.7609 67.0241 29.3338 67.4451 28.9096 67.4451H23.5086C23.083 67.4451 22.6574 67.0241 22.6574 66.6032ZM22.6574 56.0797C22.6574 55.6588 23.083 55.2378 23.5086 55.2378H28.9096C29.3338 55.2378 29.7609 55.6588 29.7609 56.0797 29.7609 56.5006 29.3338 56.9216 28.9096 56.9216H23.5086C23.083 56.9216 22.6574 56.5006 22.6574 56.0797ZM58.182 44.7143H40.4183V37.6987C40.4183 32.928 44.3978 28.8589 49.3704 28.8589 54.3444 28.8589 58.3225 32.7877 58.3225 37.6987V44.7143H58.182ZM33.3133 37.6987C33.3133 28.9992 40.4183 21.8432 49.3704 21.8432 58.3225 21.8432 65.2855 28.8589 65.2855 37.6987V44.7143H61.7331V37.6987C61.7331 30.9636 56.1916 25.3511 49.2299 25.3511 42.2655 25.3511 36.8673 30.8233 36.8673 37.6987V44.7143H33.3133V37.6987ZM75.9429 56.0797C75.9429 56.5006 75.5159 56.9216 75.0903 56.9216H69.6907C69.2637 56.9216 68.838 56.5006 68.838 56.0797 68.838 55.6588 69.2637 55.2378 69.6907 55.2378H75.0903C75.5159 55.2378 75.9429 55.5184 75.9429 56.0797ZM75.0903 62.2535H74.2377V60.4294H75.0903C77.505 60.4294 79.4954 58.465 79.4954 56.0797 79.4954 53.6944 77.505 51.73 75.0903 51.73H74.2377V46.3981C74.2377 45.4159 73.385 44.574 72.3905 44.574H68.838V37.5583C68.838 26.8945 60.0278 18.1951 49.2299 18.1951 38.4292 18.1951 29.7609 27.0348 29.7609 37.6987V44.7143H26.2098C25.2139 44.7143 24.3612 45.5562 24.3612 46.5384V51.8703H23.5086C21.0925 51.8703 19.1035 53.8347 19.1035 56.22 19.1035 58.6053 21.0925 60.5697 23.5086 60.5697H24.3612V62.3938H23.5086C21.0925 62.3938 19.1035 64.3582 19.1035 66.7435 19.1035 69.1288 21.0925 71.0932 23.5086 71.0932H24.5045C25.3558 80.7748 33.7404 88.4921 43.9708 88.4921H54.6282C64.8586 88.4921 73.2431 80.7748 74.0958 70.9529H75.0903C77.505 70.9529 79.4954 68.9885 79.4954 66.6032 79.4954 64.2179 77.505 62.2535 75.0903 62.2535ZM19.1036 34.191C20.0981 34.191 20.9521 35.0329 20.9521 36.0151 20.9521 36.9973 20.0981 37.8391 19.1036 37.8391 18.109 37.8391 17.2578 36.9973 17.2578 36.0151 17.2578 35.0329 18.109 34.191 19.1036 34.191ZM19.1036 41.2067C22.0885 41.2067 24.5046 38.8213 24.5046 35.8748 24.5046 32.9282 22.0885 30.5429 19.1036 30.5429 16.12 30.5429 13.7039 32.9282 13.7039 35.8748 13.7039 38.8213 16.12 41.2067 19.1036 41.2067ZM84.895 79.7928C83.9005 79.7928 83.0478 78.9509 83.0478 77.9687 83.0478 76.9865 83.9005 76.1446 84.895 76.1446 85.8895 76.1446 86.7436 76.9865 86.7436 77.9687 86.6003 78.9509 85.7476 79.7928 84.895 79.7928ZM84.895 72.7771C81.9114 72.7771 79.4954 75.1624 79.4954 78.109 79.4954 81.0556 81.9114 83.4409 84.895 83.4409 87.8786 83.4409 90.2946 81.0556 90.2946 78.109 90.2946 75.1624 87.7381 72.7771 84.895 72.7771ZM18.2523 88.4922C17.8253 88.4922 17.3983 88.0712 17.3983 87.6503 17.3983 87.2293 17.8253 86.8084 18.2523 86.8084 18.678 86.8084 19.1036 87.2293 19.1036 87.6503 19.1036 88.0712 18.678 88.4922 18.2523 88.4922ZM18.2523 83.3006C15.8363 83.3006 13.8472 85.265 13.8472 87.6503 13.8472 90.0356 15.8363 92 18.2523 92 20.6684 92 22.6574 90.0356 22.6574 87.6503 22.6574 85.265 20.6684 83.3006 18.2523 83.3006Z"/><path fill="#fff" d="M49.3703 70.953C47.3813 70.953 45.8193 69.4095 45.8193 67.4451 45.8193 65.4807 47.3813 63.9373 49.3703 63.9373 51.3594 63.9373 52.9228 65.4807 52.9228 67.4451 52.9228 69.4095 51.2189 70.953 49.3703 70.953ZM49.3703 60.4295C45.3922 60.4295 42.2654 63.5164 42.2654 67.4451 42.2654 70.6723 44.5396 73.4786 47.665 74.1802V76.1446C47.665 77.1267 48.5191 77.9686 49.5136 77.9686 50.5081 77.9686 51.3594 77.1267 51.3594 76.1446V74.1802C54.4862 73.3383 56.7604 70.6723 56.7604 67.4451 56.4766 63.5164 53.2079 60.4295 49.3703 60.4295ZM60.028 51.7303H38.7131C37.7186 51.7303 36.8674 52.5722 36.8674 53.5543 36.8674 54.5365 37.7186 55.3784 38.7131 55.3784H60.028C61.0225 55.3784 61.8751 54.5365 61.8751 53.5543 61.7333 52.4318 60.8806 51.7303 60.028 51.7303Z"/></svg>