<svg xmlns="http://www.w3.org/2000/svg" width="32" height="32" fill="none"><path stroke="#0061FF" stroke-width="1.5" d="M3.33301 15.9997C3.33301 10.0286 3.33301 7.04299 5.18799 5.18799C7.04299 3.33301 10.0286 3.33301 15.9997 3.33301C21.9707 3.33301 24.9563 3.33301 26.8114 5.18799C28.6663 7.04299 28.6663 10.0286 28.6663 15.9997C28.6663 21.9707 28.6663 24.9563 26.8114 26.8114C24.9563 28.6663 21.9707 28.6663 15.9997 28.6663C10.0286 28.6663 7.04299 28.6663 5.18799 26.8114C3.33301 24.9563 3.33301 21.9707 3.33301 15.9997Z"/><path stroke="#0061FF" stroke-linejoin="round" stroke-width="1.5" d="M3.33301 12H28.6663"/><path stroke="#0061FF" stroke-linecap="round" stroke-linejoin="round" stroke-width="2" d="M9.33301 8H9.34498M14.666 8H14.678"/><path stroke="#0061FF" stroke-linecap="round" stroke-linejoin="round" stroke-width="1.5" d="M10.667 17.333 12.3024 18.7426C12.9899 19.3351 13.3337 19.6315 13.3337 19.9997 13.3337 20.3678 12.9899 20.6642 12.3024 21.2567L10.667 22.6663M16 22.667H21.3333"/></svg>